# xmcd
#
# Track frame offsets:
#	150
#	12664
#	19707
#	36314
#	49386
#	58662
#	72974
#	97507
#	108024
#
# Disc length: 1484 seconds
#
# Revision: 1
# Processed by: cddbd v1.5.2PL0 Copyright (c) Steve Scherf et al.
# Submitted via: audiograbber 1.83.01
#
DISCID=6e05ca09
DTITLE=Todd Snider - The Excitement Plan B
DYEAR=2009
DGENRE=Folk-Rock
TTITLE0=Good Fortune Featuring Kris Kristofferson
TTITLE1=Stuck On The Corner Story
TTITLE2=Stuck On The Corner (Live)
TTITLE3=Santa Cruz
TTITLE4=Freebird
TTITLE5=America's Favorite Pastime (Live)
TTITLE6=Mushroom Story
TTITLE7=CCRWRSWAM
TTITLE8=Don't Be Cruel
EXTD=
EXTT0=
EXTT1=
EXTT2=
EXTT3=
EXTT4=
EXTT5=
EXTT6=
EXTT7=
EXTT8=
PLAYORDER=
